<?xml version="1.0" standalone="no"?>
<!DOCTYPE svg PUBLIC "-//W3C//DTD SVG 20010904//EN"
 "http://www.w3.org/TR/2001/REC-SVG-20010904/DTD/svg10.dtd">
<svg version="1.0" xmlns="http://www.w3.org/2000/svg"
 width="612.000000pt" height="612.000000pt" viewBox="0 0 612.000000 612.000000"
 preserveAspectRatio="xMidYMid meet">

<g transform="translate(0.000000,612.000000) scale(0.100000,-0.100000)"
fill="#000000" stroke="none">
<path d="M2870 5309 c-47 -5 -105 -13 -130 -17 l-45 -7 -5 -160 c-6 -179 -11
-196 -79 -258 -69 -62 -171 -75 -257 -32 -30 15 -85 61 -138 115 -49 49 -92
90 -96 90 -11 0 -144 -104 -223 -174 -70 -62 -184 -191 -249 -282 l-37 -50 99
-99 c118 -117 146 -169 137 -252 -7 -67 -42 -138 -84 -171 -57 -42 -98 -51
-249 -52 l-142 0 -13 -87 c-18 -114 -18 -432 -1 -545 l14 -86 151 -4 c122 -3
159 -7 189 -22 85 -42 144 -140 136 -229 -7 -78 -29 -113 -138 -222 l-99 -99
37 -51 c66 -90 170 -209 243 -275 82 -74 217 -180 230 -180 4 0 48 41 96 90
110 114 167 145 251 138 54 -5 105 -23 144 -51 15 -10 28 -1 98 68 l80 80
-239 240 c-131 132 -257 268 -280 303 -231 345 -225 792 14 1127 48 68 168
186 239 234 76 53 225 119 322 143 124 31 352 31 466 0 235 -64 309 -114 613
-414 l251 -247 77 77 76 77 -29 59 c-36 71 -40 149 -11 211 10 22 62 83 115
135 53 52 96 99 96 104 0 19 -118 165 -214 264 -55 57 -143 136 -196 177 l-97
74 -97 -98 c-54 -54 -117 -108 -141 -120 -78 -39 -196 -20 -264 42 -13 12 -34
45 -47 72 -22 45 -24 64 -24 196 l0 145 -92 13 c-124 17 -353 22 -458 10z"/>
<path d="M2940 4405 c-328 -58 -584 -294 -671 -620 -42 -156 -27 -361 36 -517
59 -146 92 -186 466 -563 l356 -360 5 -65 c6 -75 24 -115 72 -163 51 -51 101
-71 176 -71 147 0 249 103 250 252 0 34 -6 77 -14 96 -37 89 -140 156 -239
156 l-53 0 -350 353 c-283 285 -356 364 -382 413 -164 314 -8 690 330 795 75
24 220 25 303 3 133 -34 159 -56 620 -515 l430 -429 2 -58 c3 -166 160 -285
317 -241 103 29 175 116 184 224 6 83 -14 139 -72 198 -48 49 -114 77 -185 77
l-46 0 -400 401 c-220 221 -433 428 -474 461 -189 152 -426 214 -661 173z
m1651 -1231 c52 -55 13 -144 -63 -144 -102 0 -123 142 -25 168 41 11 60 6 88
-24z m-1136 -827 c23 -33 19 -84 -10 -112 -35 -36 -88 -34 -126 4 -33 33 -36
58 -14 101 27 53 115 57 150 7z"/>
<path d="M2985 3846 c-77 -24 -123 -63 -156 -133 -78 -168 35 -349 225 -358
l61 -3 448 -452 447 -452 0 -45 c0 -68 19 -119 62 -168 155 -176 439 -73 441
159 1 144 -110 256 -253 256 l-47 0 -452 450 -452 450 -3 57 c-6 115 -75 207
-177 237 -62 19 -90 19 -144 2z m133 -178 c30 -29 30 -93 0 -125 -30 -32 -96
-32 -125 0 -29 32 -35 56 -22 94 20 62 96 77 147 31z m1210 -1214 c49 -55 10
-143 -64 -144 -64 0 -107 64 -83 122 25 60 103 72 147 22z"/>
<path d="M2074 1556 c-3 -8 -4 -25 -2 -38 3 -21 9 -23 71 -26 l67 -3 0 -304 0
-305 -71 0 -70 0 3 -32 3 -33 243 -3 242 -2 0 35 0 35 -70 0 -70 0 0 305 0
304 68 3 c66 3 67 4 70 32 2 16 -2 32 -10 37 -7 5 -116 9 -241 9 -188 0 -229
-2 -233 -14z"/>
<path d="M3360 1496 l0 -76 120 0 120 0 0 -305 0 -305 100 0 100 0 0 305 0
305 119 0 c135 0 131 -3 131 86 l0 54 -284 0 c-155 0 -311 3 -345 6 l-61 7 0
-77z"/>
<path d="M2893 1392 c-76 -27 -130 -67 -153 -112 -17 -34 -20 -58 -20 -175 0
-81 5 -145 11 -158 53 -104 208 -165 345 -137 110 23 189 78 213 149 16 50 14
261 -3 302 -20 46 -71 94 -130 120 -70 31 -194 36 -263 11z m188 -129 c38 -23
40 -34 37 -173 l-3 -114 -34 -23 c-55 -37 -140 -26 -173 21 -4 6 -8 68 -8 138
0 125 0 127 26 147 34 27 113 28 155 4z"/>
</g>
</svg>
